<svg xmlns="http://www.w3.org/2000/svg" viewBox="0 0 1000 700" fill="none">
  <defs>
    <linearGradient id="sky" x1="500" y1="0" x2="500" y2="700" gradientUnits="userSpaceOnUse">
      <stop offset="0" stop-color="#2a231d"/>
      <stop offset="0.52" stop-color="#15181d"/>
      <stop offset="1" stop-color="#07090d"/>
    </linearGradient>
    <radialGradient id="sunGlow" cx="0" cy="0" r="1" gradientUnits="userSpaceOnUse" gradientTransform="translate(860 472) rotate(90) scale(126)">
      <stop offset="0" stop-color="#ffd88e" stop-opacity="0.95"/>
      <stop offset="0.28" stop-color="#ffd88e" stop-opacity="0.34"/>
      <stop offset="0.6" stop-color="#ffd88e" stop-opacity="0.1"/>
      <stop offset="1" stop-color="#ffd88e" stop-opacity="0"/>
    </radialGradient>
    <radialGradient id="haze" cx="0" cy="0" r="1" gradientUnits="userSpaceOnUse" gradientTransform="translate(740 330) rotate(38) scale(260 160)">
      <stop offset="0" stop-color="#7a5b40" stop-opacity="0.34"/>
      <stop offset="1" stop-color="#7a5b40" stop-opacity="0"/>
    </radialGradient>
  </defs>
  <rect width="1000" height="700" fill="url(#sky)"/>
  <rect width="1000" height="700" fill="url(#haze)"/>
  <ellipse cx="860" cy="472" rx="110" ry="110" fill="url(#sunGlow)"/>
  <circle cx="915" cy="480" r="18" fill="#ffd88e" fill-opacity="0.95"/>
  <path d="M0 540L74 488L164 507L245 422L323 478L408 367L494 460L575 334L656 455L741 393L830 468L912 442L1000 462V700H0V540Z" fill="#05070a"/>
  <path d="M0 592L82 550L146 564L226 520L313 543L402 470L492 562L578 442L662 542L744 490L836 566L922 520L1000 546V700H0V592Z" fill="#0d1015" opacity="0.96"/>
  <path d="M0 640L110 614L208 628L306 592L408 612L502 566L600 604L702 586L804 620L904 600L1000 612V700H0V640Z" fill="#15191f" opacity="0.92"/>
  <path d="M694 420C748 385 800 371 862 371" stroke="#e7ba74" stroke-opacity="0.18" stroke-width="2"/>
  <path d="M740 448C789 420 839 406 898 414" stroke="#fff2cf" stroke-opacity="0.08" stroke-width="2"/>
</svg>
